<svg xmlns="http://www.w3.org/2000/svg" xmlns:xlink="http://www.w3.org/1999/xlink" width="58.304" height="62.675" viewBox="0 0 58.304 62.675"><defs><linearGradient id="a" x1="0.5" x2="0.5" y2="1" gradientUnits="objectBoundingBox"><stop offset="0" stop-color="#119b9c"/><stop offset="1" stop-color="#1462a7"/></linearGradient></defs><g transform="translate(-63.813 -59)"><path d="M32.068,47.49h7.654V54.9H32.068Zm-11.9,0h7.65V54.9h-7.65Zm-11.906,0h7.654V54.9H8.257ZM43.363,35.833h7.654v7.409H43.363Zm-11.3,0h7.654v7.409H32.068Zm-11.9,0h7.65v7.409h-7.65Zm-11.906,0h7.654v7.409H8.257Zm35.106-11.9h7.654v7.409H43.363Zm-11.9,0h7.654v7.409H31.459Zm-11.9,0h7.654v7.409H19.555ZM3.5,16.155V59.175H54.806V16.155ZM0,0H58.3V62.675H0Z" transform="translate(63.813 59)" fill="url(#a)"/></g></svg>