<svg xmlns="http://www.w3.org/2000/svg" xmlns:xlink="http://www.w3.org/1999/xlink" width="80.631" height="67.025" viewBox="0 0 80.631 67.025"><defs><linearGradient id="a" x1="0.5" x2="0.5" y2="1" gradientUnits="objectBoundingBox"><stop offset="0" stop-color="#119b9c"/><stop offset="1" stop-color="#1462a7"/></linearGradient></defs><g transform="translate(-59 -43.644)"><path d="M40.316,18.142v6.551h6.3V18.142Zm-12.851,0v6.551h6.3V18.142Zm-13.1,0v6.551h6.3V18.142Zm50.9-.5c9.071,3.528,15.37,10.583,15.37,18.646,0,7.055-4.787,13.355-12.347,17.134L75.34,67.025,59.97,56.442a41.513,41.513,0,0,1-8.063,1.008c-9.323,0-17.386-3.276-22.678-8.063h.756c19.906,0,36.032-11.843,36.032-26.457A17.906,17.906,0,0,0,65.261,17.638ZM30.489,0C47.371,0,60.977,10.079,60.977,22.174c0,12.347-13.607,22.174-30.489,22.174a46.891,46.891,0,0,1-8.567-1.008L5.543,54.678,13.1,40.316C5.292,36.536,0,29.733,0,22.174,0,10.079,13.607,0,30.489,0Z" transform="translate(59 43.644)" fill="url(#a)"/></g></svg>