<svg xmlns="http://www.w3.org/2000/svg" width="85" height="61.46"
     viewBox="0 0 85 61.46">
  <defs>
    <linearGradient id="a" x1="0.5" x2="0.5" y2="1" gradientUnits="objectBoundingBox">
      <stop offset="0" stop-color="#119b9c"/>
      <stop offset="1" stop-color="#1462a7"/>
    </linearGradient>
  </defs>
  <g transform="translate(-59 -78.109)">
    <path
      d="M39.395,48.708H69.87v3.636H39.395ZM23.354,42.4A15.153,15.153,0,0,1,34.042,52.727H5.081a15.126,15.126,0,0,1,10.266-10.2c.4,2.526,2.035,4.428,3.995,4.428C21.335,46.957,22.99,45,23.354,42.4Zm28.393-4.274H69.758v3.639H51.746ZM19.412,31.28a5.237,5.237,0,1,1-5.233,5.238A5.237,5.237,0,0,1,19.412,31.28ZM0,13.39H53.144a3.613,3.613,0,0,0,.752.754l3.047,2.213H2.874V58.334h69.06V27.248l3.214,2.335V61.46H0ZM70,0a1.035,1.035,0,0,1,.991.725l3.063,9.414h9.9a1.047,1.047,0,0,1,.616,1.894L76.561,17.85l3.06,9.419a1.047,1.047,0,0,1-1.61,1.166L70,22.613l-8.009,5.823a1.045,1.045,0,0,1-1.61-1.166l3.06-9.419-8.009-5.817a1.045,1.045,0,0,1,.616-1.894h9.9L69.009.725A1.038,1.038,0,0,1,70,0Z"
      transform="translate(59 78.109)" fill="url(#a)"/>
  </g>
</svg>
