<svg xmlns="http://www.w3.org/2000/svg" width="64.522" height="64.522"
     viewBox="0 0 64.522 64.522">
  <defs>
    <linearGradient id="a" x1="0.5" x2="0.5" y2="1" gradientUnits="objectBoundingBox">
      <stop offset="0" stop-color="#119b9c"/>
      <stop offset="1" stop-color="#1462a7"/>
    </linearGradient>
  </defs>
  <g transform="translate(-59 -59)">
    <path
      d="M44.157,24.6,29.64,35.084l-5.847-5.646-6.049,4.234,6.049,5.646,5.242,4.839L49.6,29.237ZM27.019,0H37.705V6.654C49,8.67,57.465,16.937,57.465,27.019V50a24.074,24.074,0,0,1,7.057,6.251v2.218H37.5v6.049H26.817V58.473H0V56.255A26.611,26.611,0,0,1,7.057,50V27.019c0-9.88,8.469-18.348,19.76-20.365Z"
      transform="translate(59 59)" fill="url(#a)"/>
  </g>
</svg>
